<?xml version="1.0" encoding="utf-8"?>
<svg viewBox="0 0 500 500" xmlns="http://www.w3.org/2000/svg">
  <defs>
    <clipPath id="presentation_clip_path" clipPathUnits="userSpaceOnUse">
      <rect x="0" y="0" width="4048" height="4366"/>
    </clipPath>
  </defs>
  <g class="SlideGroup" transform="matrix(1.620753, 0, 0, 1.620753, -3350.020996, -3464.46875)" style="">
    <g>
      <g id="container-id1">
        <g id="id1" class="Slide" clip-path="url(#presentation_clip_path)">
          <g class="Page">
            <g class="Graphic">
              <g id="id3">
                <ellipse style="paint-order: stroke; stroke: rgb(0, 0, 0); fill: rgb(12, 12, 13);" cx="2220.585" cy="2290.056" rx="133.771" ry="136.441"/>
                <path fill="rgb(76,3,168)" d="M 2166.218 2437.308 C 2102.388 2411.123 2062.807 2348.981 2068.237 2283.458 C 2070.772 2251.242 2083.201 2235.918 2102.145 2241.95 C 2111.315 2244.847 2113.246 2253.775 2113.609 2289.856 C 2113.609 2316.4 2114.815 2324.726 2120.969 2337.759 C 2132.434 2362.374 2154.152 2383.129 2184.439 2397.125 C 2204.589 2406.658 2211.228 2411.123 2212.796 2417.276 C 2215.449 2428.379 2211.831 2436.703 2202.66 2440.806 C 2191.438 2445.995 2186.37 2445.633 2166.218 2437.308 Z" style="stroke: rgb(0, 0, 0);"/>
                <path fill="rgb(76,3,168)" d="M 2239.705 2435.135 C 2226.913 2422.345 2232.946 2409.916 2259.493 2396.522 C 2286.522 2382.768 2307.278 2362.374 2317.896 2338.723 C 2326.462 2319.536 2326.824 2317.607 2324.894 2281.287 C 2322.963 2246.414 2323.324 2242.916 2328.996 2237.243 C 2355.543 2210.696 2381.001 2265.6 2369.178 2322.795 C 2359.646 2369.011 2328.756 2409.313 2286.522 2430.308 C 2261.302 2443.099 2248.874 2444.426 2239.705 2435.135 Z" style="stroke: rgb(0, 0, 0);"/>
                <path fill="rgb(76,3,168)" d="M 2109.386 2225.418 C 2101.782 2222.523 2098.887 2208.768 2103.713 2199.596 C 2115.177 2177.877 2152.825 2153.623 2187.576 2145.899 C 2216.657 2139.504 2243.443 2141.435 2272.887 2152.295 C 2294.245 2159.896 2323.927 2179.446 2328.996 2189.339 C 2337.322 2204.663 2328.393 2221.195 2312.465 2221.195 C 2308.001 2221.195 2298.709 2217.093 2291.711 2212.026 C 2262.631 2190.909 2253.097 2187.772 2220.518 2187.772 C 2186.612 2187.772 2175.51 2191.872 2145.825 2215.163 C 2131.104 2226.988 2120.607 2229.885 2109.386 2225.418 Z" style="stroke: rgb(0, 0, 0);"/>
                <path fill="rgb(200,30,72)" d="M 2255.633 2438.635 C 2255.633 2437.067 2258.769 2434.773 2262.993 2433.809 C 2266.732 2432.842 2273.491 2429.101 2277.954 2425.844 C 2285.555 2419.811 2285.555 2419.811 2272.887 2422.949 C 2247.909 2429.704 2242.238 2420.172 2260.338 2401.952 C 2266.491 2395.556 2271.559 2391.333 2271.559 2392.058 C 2271.559 2393.023 2279.886 2385.664 2290.383 2376.01 C 2303.175 2363.942 2311.741 2352.117 2317.896 2338.723 C 2326.462 2319.536 2326.824 2317.607 2324.894 2281.287 C 2322.963 2246.414 2323.324 2242.916 2328.996 2237.243 C 2355.543 2210.696 2381.001 2265.6 2369.178 2322.795 C 2359.646 2369.011 2328.756 2409.313 2286.522 2430.308 C 2264.198 2441.53 2255.633 2443.702 2255.633 2438.635 Z" style="stroke: rgb(0, 0, 0);"/>
                <path fill="rgb(200,30,72)" d="M 2290.988 2211.662 C 2283.747 2206.233 2272.887 2199.596 2266.732 2196.701 C 2260.699 2193.806 2255.633 2190.304 2255.633 2188.737 C 2255.633 2185.479 2256.597 2185.479 2267.096 2189.339 C 2274.455 2192.235 2273.852 2190.909 2262.027 2180.411 C 2251.77 2171.481 2248.635 2166.654 2250.201 2162.551 C 2252.133 2158.086 2255.27 2157.124 2265.526 2158.086 C 2276.989 2159.052 2277.593 2158.691 2272.524 2154.827 C 2267.457 2150.726 2267.457 2150.726 2274.818 2152.659 C 2287.246 2156.156 2308.241 2169.188 2320.67 2181.014 C 2333.823 2193.202 2335.994 2207.199 2326.462 2215.765 C 2317.532 2223.849 2306.07 2222.523 2290.988 2211.662 Z" style="stroke: rgb(0, 0, 0);"/>
                <path fill="rgb(58,57,59)" d="M 2176.113 2358.875 C 2169.717 2352.48 2169.476 2348.981 2169.476 2293.715 C 2169.476 2240.986 2170.08 2234.348 2175.148 2229.885 C 2184.439 2221.195 2193.006 2223.125 2229.448 2242.673 C 2300.64 2279.96 2309.208 2287.322 2300.881 2303.248 C 2297.141 2310.246 2205.797 2361.046 2192.04 2363.579 C 2185.404 2365.27 2181.301 2363.942 2176.113 2358.875 Z" style="stroke: rgb(0, 0, 0);"/>
                <path fill="rgb(58,57,59)" d="M 2290.988 2211.662 C 2283.747 2206.233 2272.887 2199.596 2266.732 2196.701 C 2260.699 2193.806 2255.633 2189.943 2255.633 2188.375 C 2255.633 2183.91 2269.026 2189.339 2286.281 2200.804 C 2303.175 2212.266 2312.465 2214.196 2318.861 2207.801 C 2329.599 2196.942 2316.206 2178.479 2284.953 2162.19 C 2276.024 2157.124 2269.026 2152.659 2269.992 2151.692 C 2272.887 2148.796 2305.708 2167.259 2318.861 2179.083 C 2333.823 2193.202 2336.719 2206.594 2326.462 2215.765 C 2317.532 2223.849 2306.07 2222.523 2290.988 2211.662 Z" style="stroke: rgb(0, 0, 0);"/>
                <path fill="rgb(83,2,186)" d="M 2157.651 2411.485 C 2118.315 2392.661 2094.423 2364.909 2084.528 2326.536 C 2078.735 2303.61 2079.461 2265.238 2085.855 2258.962 C 2092.492 2252.207 2095.751 2261.498 2093.819 2281.529 C 2091.527 2304.576 2099.49 2335.826 2112.28 2355.616 C 2125.434 2376.01 2153.79 2402.193 2171.047 2409.916 C 2179.009 2413.415 2185.404 2417.518 2185.404 2419.206 C 2185.404 2423.914 2181.905 2422.949 2157.651 2411.485 Z" style="stroke: rgb(0, 0, 0);"/>
                <path fill="rgb(193,192,193)" d="M 2174.544 2348.257 C 2170.441 2342.585 2169.476 2331.363 2169.476 2291.422 C 2169.476 2223.849 2173.579 2218.42 2212.796 2235.918 C 2223.415 2240.381 2232.344 2245.208 2233.308 2246.414 C 2235.481 2249.672 2265.165 2265.962 2269.026 2265.962 C 2274.092 2265.962 2293.882 2285.993 2293.882 2291.422 C 2293.882 2299.145 2283.023 2307.712 2250.804 2324.968 C 2188.541 2358.513 2182.871 2360.082 2174.544 2348.257 Z" style="stroke: rgb(0, 0, 0);"/>
                <path fill="rgb(82,81,83)" d="M 2174.544 2348.257 C 2170.441 2342.585 2169.476 2331.363 2169.476 2291.422 C 2169.476 2223.849 2173.579 2218.42 2212.796 2235.918 C 2223.415 2240.381 2232.344 2245.208 2233.308 2246.414 C 2235.481 2249.672 2265.165 2265.962 2269.026 2265.962 C 2274.092 2265.962 2293.882 2285.993 2293.882 2291.422 C 2293.882 2299.145 2283.023 2307.712 2250.804 2324.968 C 2188.541 2358.513 2182.871 2360.082 2174.544 2348.257 Z M 2235.239 2324.968 C 2286.522 2297.576 2290.022 2294.076 2277.593 2282.251 C 2268.06 2273.323 2196.868 2237.243 2188.906 2237.243 C 2178.647 2237.243 2175.872 2249.069 2175.872 2291.422 C 2175.872 2334.258 2178.647 2345.722 2188.906 2345.722 C 2192.766 2345.722 2213.519 2336.432 2235.239 2324.968 Z" style="stroke: rgb(0, 0, 0); paint-order: fill; fill-rule: nonzero; stroke-width: 0.616997px;"/>
                <path d="M 2188.906 2331.968 C 2186.612 2329.793 2185.404 2314.831 2185.404 2291.181 C 2185.404 2240.743 2185.042 2240.986 2230.654 2264.995 C 2277.593 2289.614 2277.954 2291.422 2238.98 2312.901 C 2201.092 2333.897 2193.731 2336.792 2188.906 2331.968 Z" style="stroke: rgb(0, 0, 0); stroke-width: 0px;" fill="rgb(253,253,253)"/>
                <path d="M 2188.906 2331.968 C 2186.612 2329.793 2185.404 2314.831 2185.404 2291.181 C 2185.404 2240.743 2185.042 2240.986 2230.654 2264.995 C 2277.593 2289.614 2277.954 2291.422 2238.98 2312.901 C 2201.092 2333.897 2193.731 2336.792 2188.906 2331.968 Z M 2228.483 2306.143 C 2238.98 2300.353 2247.667 2293.715 2247.667 2291.181 C 2247.667 2286.354 2212.554 2266.204 2203.866 2265.962 C 2198.798 2265.962 2198.196 2269.1 2198.196 2291.422 C 2198.196 2321.83 2199.401 2322.432 2228.483 2306.143 Z" style="stroke: rgb(0, 0, 0); stroke-width: 0px;" fill="rgb(240,240,240)"/>
                <path d="M 2188.906 2331.968 C 2186.612 2329.793 2185.404 2314.831 2185.404 2291.181 C 2185.404 2240.743 2185.042 2240.986 2230.654 2264.995 C 2277.593 2289.614 2277.954 2291.422 2238.98 2312.901 C 2201.092 2333.897 2193.731 2336.792 2188.906 2331.968 Z M 2232.344 2309.401 C 2245.977 2301.678 2257.201 2293.715 2257.201 2291.181 C 2257.201 2286.354 2210.985 2259.928 2200.367 2258.602 C 2193.731 2257.998 2193.369 2259.205 2192.403 2287.923 C 2192.04 2304.576 2192.403 2320.142 2193.369 2322.432 C 2195.66 2328.466 2201.937 2326.296 2232.344 2309.401 Z" style="stroke: rgb(0, 0, 0); stroke-width: 0px;" fill="rgb(214,213,214)"/>
                <path d="M 2190.835 2327.501 C 2189.505 2326.536 2188.541 2310.006 2188.541 2290.82 C 2188.541 2261.135 2189.266 2255.705 2193.971 2254.137 C 2199.764 2251.845 2255.633 2278.994 2262.631 2287.682 C 2267.457 2293.112 2264.198 2295.647 2227.88 2315.434 C 2202.66 2329.433 2194.938 2331.968 2190.835 2327.501 Z M 2232.344 2309.401 C 2245.977 2301.678 2257.201 2293.715 2257.201 2291.181 C 2257.201 2286.354 2210.985 2259.928 2200.367 2258.602 C 2193.731 2257.998 2193.369 2259.205 2192.403 2287.923 C 2192.04 2304.576 2192.403 2320.142 2193.369 2322.432 C 2195.66 2328.466 2201.937 2326.296 2232.344 2309.401 Z" style="stroke: rgb(0, 0, 0); stroke-width: 0px;" fill="rgb(229,229,230)"/>
              </g>
            </g>
          </g>
        </g>
      </g>
    </g>
  </g>
</svg>